<svg width="18" height="17" viewBox="0 0 18 17" fill="none" xmlns="http://www.w3.org/2000/svg">
<path fill-rule="evenodd" clip-rule="evenodd" d="M3.92827 6.25177C3.8034 6.24967 3.68073 6.28479 3.5759 6.35265C3.47106 6.42052 3.38881 6.51806 3.33961 6.63284C3.29041 6.74762 3.27649 6.87446 3.29964 6.99718C3.32278 7.1199 3.38194 7.23295 3.46957 7.32193C3.5572 7.41091 3.66933 7.47179 3.79168 7.4968C3.91403 7.52182 4.04106 7.50985 4.15659 7.46241C4.27211 7.41497 4.3709 7.33422 4.44036 7.23043C4.50982 7.12665 4.54681 7.00453 4.54661 6.87965C4.5476 6.71447 4.48308 6.55564 4.36717 6.43795C4.25127 6.32026 4.09344 6.25331 3.92827 6.25177ZM10.0525 6.18507C9.91814 6.18318 9.7863 6.22128 9.67371 6.29452C9.56111 6.36776 9.47284 6.47284 9.42013 6.59639C9.36741 6.71994 9.35264 6.85637 9.37768 6.98834C9.40272 7.12031 9.46644 7.24185 9.56075 7.3375C9.65505 7.43315 9.77568 7.49859 9.90728 7.5255C10.0389 7.55241 10.1755 7.53957 10.2998 7.48861C10.4241 7.43765 10.5304 7.35088 10.6052 7.23933C10.6801 7.12779 10.72 6.9965 10.72 6.86218C10.7207 6.77388 10.7039 6.68633 10.6707 6.60452C10.6375 6.5227 10.5885 6.44823 10.5265 6.38536C10.4645 6.32248 10.3907 6.27243 10.3094 6.23806C10.2281 6.2037 10.1407 6.18569 10.0525 6.18507ZM15.5922 0H2.40834C1.76508 0.00461714 1.14999 0.264552 0.698364 0.722632C0.246736 1.18071 -0.00444564 1.79942 6.34783e-05 2.44269V10.3838C-0.00458706 11.0271 0.24646 11.6458 0.697988 12.104C1.14952 12.5622 1.76455 12.8223 2.40781 12.827H7.06659L8.65058 16.6133C8.67549 16.6972 8.72341 16.7724 8.78892 16.8305C8.85442 16.8885 8.93489 16.927 9.02116 16.9416C9.10744 16.927 9.18791 16.8885 9.25341 16.8305C9.31892 16.7724 9.36684 16.6972 9.39175 16.6133L10.9757 12.827H15.5895C15.9085 12.825 16.2239 12.7601 16.5178 12.636C16.8116 12.512 17.0781 12.3312 17.302 12.104C17.5259 11.8768 17.7028 11.6077 17.8225 11.3121C17.9423 11.0165 18.0026 10.7001 17.9999 10.3811V2.44004C18.0037 1.79733 17.7523 1.17937 17.3009 0.721882C16.8494 0.26439 16.2349 0.00475797 15.5922 0ZM5.65519 7.01782C5.65395 7.41229 5.49713 7.79034 5.21879 8.06987C4.94045 8.3494 4.56308 8.50783 4.16862 8.51075C4.00113 8.51093 3.83538 8.47689 3.68152 8.4107C3.52767 8.34452 3.38897 8.24759 3.27392 8.12587V8.3874H2.19657V3.88056C2.19234 3.88056 2.19181 3.88056 2.19657 3.88056C2.26328 3.89167 3.27339 3.88056 3.27339 3.88056V5.60431C3.39517 5.46352 3.5469 5.35176 3.71746 5.2772C3.88802 5.20263 4.0731 5.16716 4.25915 5.17337C5.85425 5.32213 5.65519 7.01782 5.65519 7.01782ZM7.551 5.30943V8.39587H6.49695V5.34066C6.47793 5.21048 6.41873 5.08948 6.32762 4.99457C6.2365 4.89966 6.11802 4.83557 5.98872 4.81125V3.73232C6.19862 3.71899 6.40894 3.75076 6.60553 3.82551C6.80212 3.90026 6.98042 4.01624 7.12844 4.16566C7.27646 4.31508 7.39075 4.49447 7.46364 4.69176C7.53653 4.88905 7.56632 5.09966 7.551 5.30943ZM10.0525 8.51287C9.59937 8.52773 9.15889 8.3623 8.82762 8.05286C8.49634 7.74341 8.30131 7.31522 8.28529 6.86218C8.30117 6.40909 8.49616 5.98081 8.82747 5.67134C9.15878 5.36187 9.59933 5.19648 10.0525 5.21149C10.5056 5.19648 10.9461 5.36187 11.2774 5.67134C11.6087 5.98081 11.8037 6.40909 11.8196 6.86218C11.8036 7.31522 11.6086 7.74341 11.2773 8.05286C10.946 8.3623 10.5055 8.52773 10.0525 8.51287ZM15.8278 8.51287C15.8344 8.71946 15.7989 8.92524 15.7233 9.11761C15.6477 9.30998 15.5336 9.4849 15.388 9.63165C15.2425 9.7784 15.0685 9.89389 14.8768 9.97106C14.685 10.0482 14.4795 10.0855 14.2729 10.0804H13.7964V9.06504H14.0812C14.0812 9.06504 14.7409 9.12645 14.7335 8.09517C14.7335 8.09517 14.6048 8.51287 13.6794 8.51287C13.3243 8.49104 12.9908 8.33456 12.747 8.07535C12.5033 7.81614 12.3676 7.47371 12.3675 7.11788V6.62553C12.3826 6.24173 12.5429 5.87799 12.8161 5.60797C13.0892 5.33795 13.4548 5.18184 13.8388 5.17125C14.0141 5.15942 14.1897 5.19117 14.3498 5.26369C14.5098 5.3362 14.6495 5.44722 14.7562 5.58684V5.25596H15.823V8.51287H15.8278ZM14.1495 6.19883C14.0183 6.19694 13.8894 6.23414 13.7793 6.3057C13.6692 6.37725 13.5829 6.47993 13.5314 6.60067C13.4798 6.72142 13.4654 6.85476 13.4898 6.98375C13.5143 7.11274 13.5765 7.23155 13.6687 7.32505C13.7608 7.41855 13.8787 7.48253 14.0074 7.50885C14.136 7.53517 14.2695 7.52263 14.391 7.47283C14.5125 7.42304 14.6164 7.33824 14.6895 7.22922C14.7627 7.12019 14.8018 6.99188 14.8018 6.86059C14.8024 6.77431 14.786 6.68875 14.7536 6.6088C14.7211 6.52885 14.6733 6.45607 14.6127 6.39462C14.5521 6.33317 14.4801 6.28425 14.4006 6.25066C14.3211 6.21707 14.2358 6.19945 14.1495 6.19883Z" fill="white"/>
</svg>
