<svg width="18" height="18" viewBox="0 0 18 18" fill="none" xmlns="http://www.w3.org/2000/svg">
<path fill-rule="evenodd" clip-rule="evenodd" d="M13.0326 0H4.96742C3.65043 0.00148963 2.38782 0.52532 1.45657 1.45657C0.52532 2.38782 0.00148963 3.65043 0 4.96742V13.0326C0.00134094 14.3496 0.525123 15.6123 1.4564 16.5436C2.38769 17.4749 3.65039 17.9987 4.96742 18H13.0326C14.3496 17.9985 15.6122 17.4747 16.5434 16.5434C17.4747 15.6122 17.9985 14.3496 18 13.0326V4.96742C17.9985 3.65043 17.4747 2.38782 16.5434 1.45657C15.6122 0.52532 14.3496 0.00148963 13.0326 0ZM16.4027 13.0326C16.4018 13.9261 16.0465 14.7828 15.4146 15.4146C14.7828 16.0465 13.9261 16.4018 13.0326 16.4027H4.96742C4.07387 16.4018 3.21718 16.0465 2.58535 15.4146C1.95352 14.7828 1.59817 13.9261 1.59727 13.0326V4.96742C1.59906 4.07415 1.9547 3.21798 2.58634 2.58634C3.21798 1.9547 4.07415 1.59906 4.96742 1.59727H13.0326C13.9259 1.59906 14.782 1.9547 15.4137 2.58634C16.0453 3.21798 16.4009 4.07415 16.4027 4.96742V13.0326ZM9.00056 4.36239C8.08319 4.36228 7.1864 4.63421 6.42358 5.14379C5.66076 5.65337 5.06619 6.37772 4.71505 7.22522C4.36391 8.07273 4.27198 9.00533 4.45088 9.90508C4.62978 10.8048 5.07148 11.6313 5.72012 12.28C6.36876 12.9288 7.1952 13.3706 8.09493 13.5496C8.99466 13.7286 9.92727 13.6368 10.7748 13.2857C11.6224 12.9347 12.3468 12.3402 12.8565 11.5775C13.3661 10.8147 13.6382 9.91793 13.6382 9.00056C13.6368 7.77095 13.1478 6.59208 12.2784 5.72256C11.409 4.85304 10.2302 4.36388 9.00056 4.36239ZM9.00056 12.0398C8.39946 12.0398 7.81186 11.8615 7.31207 11.5276C6.81227 11.1936 6.42273 10.719 6.1927 10.1636C5.96267 9.60827 5.90248 8.99719 6.01975 8.40764C6.13702 7.81809 6.42648 7.27656 6.85152 6.85152C7.27656 6.42648 7.81809 6.13702 8.40764 6.01975C8.99719 5.90248 9.60827 5.96267 10.1636 6.1927C10.719 6.42273 11.1936 6.81227 11.5276 7.31207C11.8615 7.81186 12.0398 8.39946 12.0398 9.00056C12.0384 9.8062 11.7178 10.5785 11.1481 11.1481C10.5785 11.7178 9.8062 12.0384 9.00056 12.0398ZM13.8323 3.00825C13.5616 3.0085 13.2994 3.10258 13.0903 3.27449C12.8812 3.4464 12.7382 3.68548 12.6856 3.95102C12.633 4.21656 12.6741 4.49212 12.8019 4.73075C12.9297 4.96938 13.1363 5.15632 13.3864 5.25972C13.6366 5.36312 13.9149 5.37658 14.1739 5.29781C14.4328 5.21905 14.6565 5.05292 14.8067 4.82774C14.957 4.60257 15.0245 4.33226 14.9978 4.06289C14.9711 3.79352 14.8518 3.54174 14.6602 3.35045C14.4403 3.13154 14.1427 3.00853 13.8323 3.00825Z" fill="white"/>
</svg>
