<svg width="192" height="41" viewBox="0 0 192 41" fill="none" xmlns="http://www.w3.org/2000/svg">
<path fill-rule="evenodd" clip-rule="evenodd" d="M68.558 22.5C68.558 24.959 67.139 26.953 64.499 26.953C61.859 26.953 60.439 24.959 60.439 22.5V18.5C60.439 16.04 61.858 14.047 64.499 14.047C67.14 14.047 68.559 16.04 68.559 18.5L68.558 22.5ZM64.5 10.738C59.482 10.738 56.786 14.046 56.786 18.128V22.872C56.786 26.954 59.486 30.262 64.5 30.262C69.514 30.262 72.213 26.954 72.213 22.872V18.128C72.213 14.046 69.513 10.738 64.5 10.738ZM138.147 22.5C138.147 24.959 136.728 26.953 134.087 26.953C131.446 26.953 130.028 24.959 130.028 22.5V18.5C130.028 16.04 131.446 14.047 134.087 14.047C136.728 14.047 138.147 16.04 138.147 18.5V22.5ZM134.087 10.738C129.07 10.738 126.374 14.046 126.374 18.128V22.872C126.374 26.954 129.074 30.262 134.087 30.262C139.1 30.262 141.801 26.954 141.801 22.872V18.128C141.801 14.046 139.101 10.738 134.087 10.738ZM162.187 22.211C162.187 24.77 160.875 26.664 158.128 26.664H155.228V14.337H158.123C160.871 14.337 162.183 16.231 162.183 18.791V22.211H162.187ZM157.817 11.027H151.578V29.973H157.817C163.248 29.973 165.841 26.83 165.841 22.583V18.416C165.841 14.169 163.248 11.026 157.817 11.026M86.172 26.663V11.027H82.518V29.973H94.213V26.663H86.172ZM109 19.94V22.181H113.477V22.5C113.477 24.959 112.058 26.953 109.417 26.953C106.776 26.953 105.357 24.959 105.357 22.5V18.5C105.357 16.04 106.776 14.047 109.417 14.047C111.923 14.047 113.078 15.275 113.371 17.435H116.957C116.664 13.557 114.301 10.735 109.417 10.735C104.4 10.735 101.704 14.044 101.704 18.125V22.869C101.704 26.95 104.404 30.259 109.417 30.259C114.43 30.259 117.131 26.95 117.131 22.869V19.94H109ZM172.8 29.973H176.741L182.4 15.719L188.054 29.973H192L184.3 11.027H180.5L172.8 29.973ZM11.455 0H7.081V18.457H11.455V0ZM4.374 0H0V18.457H4.374V0ZM18.537 0H14.163V18.457H18.537V0ZM22.565 15.387L25.649 18.458L28.734 15.387L25.649 12.316L22.565 15.387ZM34.932 15.387L38.016 18.458L41.1 15.386L38.015 12.315L34.932 15.387ZM28.732 15.387L31.816 18.458L34.9 15.386L31.815 12.315L28.732 15.387ZM28.732 3.072L25.649 0L22.564 3.071L25.649 6.142L28.732 3.072ZM41.099 3.072L38.016 0L34.931 3.071L38.016 6.142L41.099 3.072ZM34.899 3.072L31.818 0L28.733 3.071L31.818 6.142L34.899 3.072ZM31.847 9.229L34.931 12.3L38.016 9.229L34.931 6.157L31.847 9.229ZM31.817 9.229L28.733 6.157L25.648 9.229L28.733 12.3L31.817 9.229ZM41.1 12.3V6.157L38.016 9.229L41.1 12.3ZM22.564 6.157V12.3L25.648 9.228L22.564 6.157ZM18.536 34.151L14.717 30.961L9.269 35.511L3.82 30.962L0 34.151V39.64L3.82 36.45L9.268 41L14.716 36.45L18.535 39.639L18.536 34.151ZM0 31.12L3.82 27.93L9.268 32.48L14.717 27.93L18.536 31.119V25.631L14.717 22.441L9.268 26.992L3.82 22.441L0 25.631V31.12ZM33.846 28.39L36.377 25.87L33.036 22.542H27.974L33.846 28.39ZM36 22.542L41.1 27.623V22.582L41.06 22.542H36ZM41 38.394L38.469 40.914L38.557 41H41.1V38.492L41 38.394ZM22.645 25.155L25.176 22.635L25.083 22.542H22.564V25.075L22.645 25.155ZM27.645 41L22.567 35.943V40.984L22.58 41H27.645ZM29.821 35.212L27.29 37.732L30.568 41H35.63L29.821 35.212ZM37.792 27.275L35.261 29.795L41.1 35.612V30.572L37.792 27.275ZM25.876 36.327L28.407 33.807L22.565 27.989V33.03L25.876 36.327ZM37.112 39.561L39.643 37.041L26.536 23.989L24.005 26.509L37.112 39.561Z" fill="#40060B"/>
</svg>
